<svg width="14" height="14" viewBox="0 0 14 14" fill="none" xmlns="http://www.w3.org/2000/svg">
<path d="M12.621 4.77685L8.7111 4.19381L6.96327 0.558111C6.91553 0.458567 6.837 0.377985 6.73998 0.329003C6.49667 0.205759 6.201 0.308462 6.07935 0.558111L4.33152 4.19381L0.421611 4.77685C0.313816 4.79265 0.215259 4.84479 0.139802 4.9238C0.048579 5.02 -0.00168917 5.14943 4.3343e-05 5.28364C0.00177586 5.41785 0.0553674 5.54587 0.149042 5.63956L2.97791 8.46944L2.30958 12.4654C2.2939 12.5583 2.30393 12.6539 2.33851 12.7414C2.3731 12.8288 2.43086 12.9045 2.50525 12.9599C2.57964 13.0153 2.66768 13.0483 2.75939 13.055C2.8511 13.0617 2.9428 13.0419 3.02411 12.9979L6.52131 11.1113L10.0185 12.9979C10.114 13.05 10.2249 13.0674 10.3311 13.0484C10.5991 13.001 10.7792 12.7403 10.733 12.4654L10.0647 8.46944L12.8936 5.63956C12.9706 5.56214 13.0214 5.46102 13.0368 5.35041C13.0784 5.0739 12.8905 4.81793 12.621 4.77685Z" fill="#FFB742"/>
</svg>
